<svg xmlns="http://www.w3.org/2000/svg" width="160" height="160" viewBox="0 0 160 160"><g style="fill:#ddd;fill-opacity:1;stroke:#d9d9d9;stroke-opacity:1"><path d="M150.98 32.66a25.124 24.748 0 0 1-22.258 27.263 25.124 24.748 0 0 1-27.694-21.905 25.124 24.748 0 0 1 22.218-27.295 25.124 24.748 0 0 1 27.726 21.865l-24.97 2.733zm.001 89.753a25.124 24.748 0 0 1-22.258 27.263 25.124 24.748 0 0 1-27.694-21.904 25.124 24.748 0 0 1 22.218-27.296 25.124 24.748 0 0 1 27.726 21.866l-24.97 2.732zM60.782 77.398a25.124 24.748 0 0 1-22.258 27.264A25.124 24.748 0 0 1 10.83 82.757 25.124 24.748 0 0 1 33.048 55.46a25.124 24.748 0 0 1 27.726 21.866l-24.97 2.733z" style="stroke-width:10.466;stroke-linecap:square;fill:#ddd;fill-opacity:1;stroke:#d9d9d9;stroke-opacity:1"/><path d="M15.186 81.692h73.498v4.285H15.186Z" style="stroke-width:10.466;stroke-linecap:square;fill:#ddd;fill-opacity:1;stroke:#d9d9d9;stroke-opacity:1" transform="rotate(-23.964)"/><path d="M76.466-64.891h73.498v4.284H76.466Z" style="stroke-width:10.466;stroke-linecap:square;fill:#ddd;fill-opacity:1;stroke:#d9d9d9;stroke-opacity:1" transform="rotate(23.964)scale(1 -1)"/></g></svg>
