<svg xmlns="http://www.w3.org/2000/svg" height="30" width="30"><path d="M8.589 14.828a3.442 3.247 0 0 1-3.05 3.577 3.442 3.247 0 0 1-3.794-2.874 3.442 3.247 0 0 1 3.044-3.581 3.442 3.247 0 0 1 3.799 2.869" fill="#d1d1d1"/><path d="M25.61 5.543 4.959 15.374l20.653 9.834" fill="none" stroke="#d1d1d1" stroke-width="2.262"/><path d="M28.33 24.814a3.442 3.247 0 0 1-3.049 3.577 3.442 3.247 0 0 1-3.794-2.874 3.442 3.247 0 0 1 3.044-3.581 3.442 3.247 0 0 1 3.799 2.868M28.33 5.15a3.442 3.247 0 0 1-3.05 3.577 3.442 3.247 0 0 1-3.794-2.874 3.442 3.247 0 0 1 3.044-3.581 3.442 3.247 0 0 1 3.8 2.868" fill="#d1d1d1"/></svg>
